<?xml version="1.0" standalone="no"?>
<!DOCTYPE svg PUBLIC "-//W3C//DTD SVG 20010904//EN"
 "http://www.w3.org/TR/2001/REC-SVG-20010904/DTD/svg10.dtd">
<svg version="1.0" xmlns="http://www.w3.org/2000/svg"
 width="1024.000000pt" height="1024.000000pt" viewBox="0 0 1024.000000 1024.000000"
 preserveAspectRatio="xMidYMid meet">

<g transform="translate(0.000000,1024.000000) scale(0.100000,-0.100000)"
fill="#287233" stroke="none">
<path d="M1285 6249 c-56 -13 -151 -63 -147 -78 1 -7 -2 -10 -8 -6 -16 10 -75
-39 -120 -99 -40 -53 -50 -73 -28 -60 7 4 8 3 4 -5 -4 -6 -12 -9 -17 -5 -13 8
-74 -125 -103 -226 -39 -137 -62 -328 -48 -402 18 -97 71 -157 170 -190 l41
-14 4 -185 c5 -213 22 -294 87 -424 39 -78 130 -197 160 -210 8 -3 1 9 -15 27
l-30 33 32 -29 c18 -16 30 -33 28 -37 -3 -4 12 -21 32 -38 39 -32 59 -40 47
-18 -4 7 -3 9 2 4 5 -5 9 -14 9 -20 0 -22 206 -117 307 -142 259 -65 595 -50
834 36 205 75 363 211 453 393 68 135 83 212 87 426 l4 185 54 21 c30 12 69
32 87 45 43 30 79 110 79 176 0 80 -29 269 -54 358 -29 101 -82 218 -95 211
-5 -4 -13 -1 -17 5 -4 8 -3 9 4 5 24 -14 11 13 -28 63 -23 29 -45 49 -49 46
-5 -2 -15 3 -22 12 -10 12 -10 14 -1 9 30 -18 7 12 -31 41 -164 123 -414 138
-578 34 -52 -33 -89 -77 -117 -139 l-19 -43 -233 -1 -232 -2 -24 50 c-32 66
-77 116 -101 108 -13 -4 -14 -3 -5 3 11 8 11 12 0 20 -28 23 -95 51 -146 62
-62 13 -200 13 -257 0z m178 -6 c-23 -2 -64 -2 -90 0 -26 2 -7 3 42 3 50 0 71
-1 48 -3z m1260 0 c-13 -2 -35 -2 -50 0 -16 2 -5 4 22 4 28 0 40 -2 28 -4z
m-1176 -9 c-3 -3 -12 -4 -19 -1 -8 3 -5 6 6 6 11 1 17 -2 13 -5z m953 -24 c-8
-5 -19 -10 -25 -10 -5 0 -3 5 5 10 8 5 20 10 25 10 6 0 3 -5 -5 -10z m-100
-53 c0 -2 -12 -14 -27 -28 l-28 -24 24 28 c23 25 31 32 31 24z m601 -24 c13
-16 12 -17 -3 -4 -10 7 -18 15 -18 17 0 8 8 3 21 -13z m-1901 4 c0 -2 -12 -14
-27 -28 l-28 -24 24 28 c23 25 31 32 31 24z m1981 -84 c13 -16 12 -17 -3 -4
-17 13 -22 21 -14 21 2 0 10 -8 17 -17z m-1573 -19 c20 -8 52 -29 70 -46 19
-19 32 -26 32 -18 0 16 29 -18 30 -34 0 -6 -7 -1 -15 10 -22 29 -18 10 14 -60
16 -35 40 -71 52 -79 20 -11 85 -14 364 -13 187 1 346 6 354 10 7 5 30 45 51
90 20 44 47 89 58 100 12 10 19 22 17 27 -3 4 0 11 6 15 8 5 9 3 4 -6 -6 -10
-4 -12 11 -6 84 35 194 33 259 -3 68 -38 124 -101 166 -186 47 -95 88 -249 96
-361 6 -80 5 -82 -21 -99 -65 -43 -175 -25 -268 45 -28 22 -56 36 -62 33 -6
-3 -8 -2 -3 2 8 10 -32 57 -43 50 -4 -3 -16 5 -26 18 -16 18 -16 19 -1 8 35
-27 15 7 -36 62 -50 54 -56 57 -99 57 -35 0 -54 -6 -75 -24 -42 -36 -37 -88
15 -163 22 -32 44 -57 50 -56 5 1 18 -8 28 -20 l19 -22 -22 19 c-41 34 -24 3
24 -46 52 -53 84 -67 37 -16 l-29 32 36 -29 c19 -17 31 -33 26 -36 -5 -4 5
-16 21 -28 34 -24 47 -27 36 -8 -4 7 -3 9 2 4 5 -5 9 -14 9 -20 0 -13 79 -54
121 -63 29 -5 32 -10 38 -51 11 -82 6 -252 -9 -331 -58 -287 -279 -454 -650
-492 -236 -25 -470 8 -628 87 -26 13 -52 21 -58 17 -10 -6 -106 63 -131 94 -7
9 16 -7 52 -36 36 -29 69 -52 75 -52 5 0 -3 10 -20 22 -54 39 -140 132 -169
183 -64 116 -92 270 -81 443 7 100 8 104 34 114 108 43 176 84 245 149 42 39
76 76 76 82 0 6 -12 0 -27 -14 l-28 -24 24 27 c14 16 27 26 29 23 7 -6 32 15
32 27 0 5 -5 6 -11 2 -8 -5 -8 -1 0 14 6 12 17 24 24 28 8 5 7 2 -2 -9 -8 -10
-11 -20 -8 -23 3 -3 17 12 31 35 54 85 21 161 -70 161 -47 0 -47 0 -163 -120
-118 -121 -175 -160 -258 -176 -45 -9 -100 3 -124 27 -23 23 -24 56 -3 180 55
321 182 489 371 489 35 0 80 -7 101 -16z m-229 3 c-2 -2 -17 -11 -34 -21 l-30
-17 24 20 c13 12 28 21 34 21 6 0 8 -1 6 -3z m1646 -77 c10 -11 16 -20 13 -20
-3 0 -13 9 -23 20 -10 11 -16 20 -13 20 3 0 13 -9 23 -20z m-1745 -4 c0 -2 -8
-10 -17 -17 -16 -13 -17 -12 -4 4 13 16 21 21 21 13z m-68 -95 c-9 -16 -18
-28 -21 -26 -4 5 27 55 34 55 2 0 -4 -13 -13 -29z m1308 -25 c0 -3 -4 -8 -10
-11 -5 -3 -10 -1 -10 4 0 6 5 11 10 11 6 0 10 -2 10 -4z m600 -31 c0 -5 -5 -3
-10 5 -5 8 -10 20 -10 25 0 6 5 3 10 -5 5 -8 10 -19 10 -25z m-1255 4 l50 -6
-46 -2 c-28 0 -52 5 -65 15 -10 8 -12 12 -4 7 8 -4 38 -10 65 -14z m453 4
c-10 -2 -26 -2 -35 0 -10 3 -2 5 17 5 19 0 27 -2 18 -5z m145 -10 c-7 -2 -21
-2 -30 0 -10 3 -4 5 12 5 17 0 24 -2 18 -5z m-1486 -65 c-3 -8 -6 -5 -6 6 -1
11 2 17 5 13 3 -3 4 -12 1 -19z m2360 -40 c-3 -8 -6 -5 -6 6 -1 11 2 17 5 13
3 -3 4 -12 1 -19z m10 -60 c-3 -8 -6 -5 -6 6 -1 11 2 17 5 13 3 -3 4 -12 1
-19z m-1660 -4 c-3 -3 -12 -4 -19 -1 -8 3 -5 6 6 6 11 1 17 -2 13 -5z m946 -1
c-7 -2 -21 -2 -30 0 -10 3 -4 5 12 5 17 0 24 -2 18 -5z m-882 -20 c13 -16 12
-17 -3 -4 -17 13 -22 21 -14 21 2 0 10 -8 17 -17z m828 14 c-2 -1 -13 -9 -24
-17 -19 -14 -19 -14 -6 3 7 9 18 17 24 17 6 0 8 -1 6 -3z m117 -29 l29 -33
-32 29 c-31 28 -38 36 -30 36 2 0 16 -15 33 -32z m-1569 -10 c-3 -7 -5 -2 -5
12 0 14 2 19 5 13 2 -7 2 -19 0 -25z m2230 -5 c-3 -10 -5 -4 -5 12 0 17 2 24
5 18 2 -7 2 -21 0 -30z m-1590 -25 c-3 -7 -5 -2 -5 12 0 14 2 19 5 13 2 -7 2
-19 0 -25z m770 -15 c-3 -10 -5 -2 -5 17 0 19 2 27 5 18 2 -10 2 -26 0 -35z
m-1420 -5 c-3 -7 -5 -2 -5 12 0 14 2 19 5 13 2 -7 2 -19 0 -25z m2070 10 c-3
-8 -6 -5 -6 6 -1 11 2 17 5 13 3 -3 4 -12 1 -19z m180 -65 c-2 -16 -4 -5 -4
22 0 28 2 40 4 28 2 -13 2 -35 0 -50z m-1827 34 c0 -2 -19 -21 -42 -42 l-43
-40 40 43 c36 39 45 47 45 39z m-433 -64 c-3 -10 -5 -4 -5 12 0 17 2 24 5 18
2 -7 2 -21 0 -30z m0 -45 c-3 -8 -6 -5 -6 6 -1 11 2 17 5 13 3 -3 4 -12 1 -19z
m2270 -20 c-3 -8 -6 -5 -6 6 -1 11 2 17 5 13 3 -3 4 -12 1 -19z m-1992 -8 c-3
-5 -12 -10 -18 -10 -7 0 -6 4 3 10 19 12 23 12 15 0z m-448 -32 c-3 -8 -6 -5
-6 6 -1 11 2 17 5 13 3 -3 4 -12 1 -19z m233 2 c8 -5 11 -10 5 -10 -5 0 -17 5
-25 10 -8 5 -10 10 -5 10 6 0 17 -5 25 -10z m47 -16 c-3 -3 -12 -4 -19 -1 -8
3 -5 6 6 6 11 1 17 -2 13 -5z m393 3 c0 -2 -12 -14 -27 -28 l-28 -24 24 28
c23 25 31 32 31 24z m-656 -23 c3 -8 2 -12 -4 -9 -6 3 -10 10 -10 16 0 14 7
11 14 -7z m31 -50 c9 -15 12 -23 6 -20 -11 7 -35 46 -28 46 3 0 12 -12 22 -26z
m2355 13 c0 -2 -10 -12 -22 -23 l-23 -19 19 23 c18 21 26 27 26 19z m-485 -65
c-3 -3 -11 0 -18 7 -9 10 -8 11 6 5 10 -3 15 -9 12 -12z m-1698 -74 c-3 -8 -6
-5 -6 6 -1 11 2 17 5 13 3 -3 4 -12 1 -19z m170 -10 c-3 -7 -5 -2 -5 12 0 14
2 19 5 13 2 -7 2 -19 0 -25z m1820 0 c-3 -7 -5 -2 -5 12 0 14 2 19 5 13 2 -7
2 -19 0 -25z m10 -180 c-2 -29 -3 -8 -3 47 0 55 1 79 3 53 2 -26 2 -71 0 -100z
m-1840 0 c-2 -24 -4 -5 -4 42 0 47 2 66 4 43 2 -24 2 -62 0 -85z m-160 -120
c-2 -13 -4 -5 -4 17 -1 22 1 32 4 23 2 -10 2 -28 0 -40z m170 0 c-3 -7 -5 -2
-5 12 0 14 2 19 5 13 2 -7 2 -19 0 -25z m1820 -10 c-3 -8 -6 -5 -6 6 -1 11 2
17 5 13 3 -3 4 -12 1 -19z m-1810 -50 c-3 -8 -6 -5 -6 6 -1 11 2 17 5 13 3 -3
4 -12 1 -19z m-170 -10 c-3 -8 -6 -5 -6 6 -1 11 2 17 5 13 3 -3 4 -12 1 -19z
m1960 -40 c-3 -8 -6 -5 -6 6 -1 11 2 17 5 13 3 -3 4 -12 1 -19z m-1950 -10
c-3 -8 -6 -5 -6 6 -1 11 2 17 5 13 3 -3 4 -12 1 -19z m1933 -45 c-11 -17 -11
-17 -6 0 3 10 6 24 7 30 0 9 2 9 5 0 3 -7 0 -20 -6 -30z m-1669 -110 c13 -16
12 -17 -3 -4 -17 13 -22 21 -14 21 2 0 10 -8 17 -17z m-131 -105 c15 -21 17
-28 6 -19 -16 13 -41 51 -33 51 2 0 14 -15 27 -32z m1660 -41 c0 -2 -17 -19
-37 -38 l-38 -34 34 38 c33 34 41 42 41 34z m-1183 -83 c-3 -3 -12 -4 -19 -1
-8 3 -5 6 6 6 11 1 17 -2 13 -5z m70 -20 c-3 -3 -12 -4 -19 -1 -8 3 -5 6 6 6
11 1 17 -2 13 -5z m600 0 c-3 -3 -12 -4 -19 -1 -8 3 -5 6 6 6 11 1 17 -2 13
-5z m-544 -11 c-7 -2 -19 -2 -25 0 -7 3 -2 5 12 5 14 0 19 -2 13 -5z m494 1
c-3 -3 -12 -4 -19 -1 -8 3 -5 6 6 6 11 1 17 -2 13 -5z m-274 -21 c-18 -2 -48
-2 -65 0 -18 2 -4 4 32 4 36 0 50 -2 33 -4z m110 0 c-13 -2 -33 -2 -45 0 -13
2 -3 4 22 4 25 0 35 -2 23 -4z m-573 -88 c14 -8 21 -14 15 -14 -5 0 -21 6 -35
14 -14 8 -20 14 -15 14 6 0 21 -6 35 -14z m167 -51 c-3 -3 -12 -4 -19 -1 -8 3
-5 6 6 6 11 1 17 -2 13 -5z m176 -31 c-7 -2 -19 -2 -25 0 -7 3 -2 5 12 5 14 0
19 -2 13 -5z m230 0 c-7 -2 -19 -2 -25 0 -7 3 -2 5 12 5 14 0 19 -2 13 -5z
m65 0 c-10 -2 -26 -2 -35 0 -10 3 -2 5 17 5 19 0 27 -2 18 -5z"/>
<path d="M1512 5080 c-13 -6 -32 -30 -43 -56 -51 -115 38 -233 134 -177 60 35
73 152 24 209 -25 28 -79 39 -115 24z m18 -14 c0 -2 -7 -7 -16 -10 -8 -3 -12
-2 -9 4 6 10 25 14 25 6z m81 -13 c12 -16 12 -17 -1 -7 -8 6 -22 14 -30 17
-13 5 -12 6 1 6 9 1 23 -7 30 -16z m26 -65 c-3 -8 -6 -5 -6 6 -1 11 2 17 5 13
3 -3 4 -12 1 -19z m-160 -60 c-3 -8 -6 -5 -6 6 -1 11 2 17 5 13 3 -3 4 -12 1
-19z m155 -30 c-8 -8 -9 -4 -5 13 4 13 8 18 11 10 2 -7 -1 -18 -6 -23z m-121
-35 c13 -16 12 -17 -3 -4 -17 13 -22 21 -14 21 2 0 10 -8 17 -17z"/>
<path d="M2479 5062 c-33 -29 -34 -33 -34 -100 0 -60 3 -74 24 -96 30 -31 73
-42 112 -26 50 21 78 100 60 168 -14 50 -39 72 -89 79 -33 4 -44 1 -73 -25z
m40 5 c-2 -1 -13 -9 -24 -17 -19 -14 -19 -14 -6 3 7 9 18 17 24 17 6 0 8 -1 6
-3z m87 -19 l19 -23 -25 20 c-14 11 -27 21 -29 22 -2 2 0 3 6 3 5 0 18 -10 29
-22z m21 -50 c-3 -8 -6 -5 -6 6 -1 11 2 17 5 13 3 -3 4 -12 1 -19z"/>
<path d="M1856 4829 c-53 -42 -22 -136 72 -221 78 -70 160 -71 241 -2 49 43
101 127 101 167 0 16 -10 38 -25 52 -24 25 -27 25 -193 25 -156 0 -171 -2
-196 -21z m54 4 c-8 -3 -24 -10 -35 -15 -20 -9 -20 -9 -1 6 11 9 27 16 35 15
14 0 14 -1 1 -6z m293 0 c-7 -2 -21 -2 -30 0 -10 3 -4 5 12 5 17 0 24 -2 18
-5z m57 -60 c0 -10 -4 -24 -9 -31 -5 -9 -8 -3 -7 17 1 32 16 45 16 14z m-359
-110 c13 -16 12 -17 -3 -4 -10 7 -18 15 -18 17 0 8 8 3 21 -13z m279 -26 c0
-2 -10 -12 -22 -23 l-23 -19 19 23 c18 21 26 27 26 19z m-185 -55 c-3 -3 -11
0 -18 7 -9 10 -8 11 6 5 10 -3 15 -9 12 -12z"/>
<path d="M3980 5281 l0 -641 145 0 145 0 0 175 0 175 174 0 c272 0 393 35 504
147 68 68 99 129 120 236 14 70 14 85 -1 159 -17 84 -56 175 -75 171 -5 -1
-16 5 -24 15 -12 15 -11 16 5 3 9 -7 17 -9 17 -4 0 20 -112 115 -162 138 -120
55 -149 58 -510 63 l-338 4 0 -641z m17 577 c-2 -13 -4 -5 -4 17 -1 22 1 32 4
23 2 -10 2 -28 0 -40z m651 35 c-10 -2 -26 -2 -35 0 -10 3 -2 5 17 5 19 0 27
-2 18 -5z m49 -9 c-3 -3 -12 -4 -19 -1 -8 3 -5 6 6 6 11 1 17 -2 13 -5z m216
-103 c13 -14 1 -8 -28 14 -63 47 -69 53 -27 29 18 -10 43 -30 55 -43z m-916
-579 c-1 -103 -2 -16 -2 193 0 209 1 293 2 187 2 -106 2 -277 0 -380z m300
492 c-3 -3 -12 -4 -19 -1 -8 3 -5 6 6 6 11 1 17 -2 13 -5z m266 -1 c-13 -2
-35 -2 -50 0 -16 2 -5 4 22 4 28 0 40 -2 28 -4z m452 -34 c9 -17 15 -33 13
-35 -3 -2 -12 12 -21 31 -21 43 -13 47 8 4z m-370 -3 c86 -37 135 -112 135
-206 0 -107 -65 -187 -171 -209 -27 -6 -115 -11 -194 -11 l-145 0 0 226 0 226
168 -4 c131 -3 176 -8 207 -22z m19 15 c4 -5 -3 -7 -14 -4 -23 6 -26 13 -6 13
8 0 17 -4 20 -9z m-407 -243 c-1 -40 -3 -8 -3 72 0 80 2 112 3 73 2 -40 2
-106 0 -145z m493 177 c13 -14 21 -25 18 -25 -2 0 -15 11 -28 25 -13 14 -21
25 -18 25 2 0 15 -11 28 -25z m297 -57 c-3 -7 -5 -2 -5 12 0 14 2 19 5 13 2
-7 2 -19 0 -25z m10 -65 c-3 -10 -5 -2 -5 17 0 19 2 27 5 18 2 -10 2 -26 0
-35z m-260 5 c-3 -7 -5 -2 -5 12 0 14 2 19 5 13 2 -7 2 -19 0 -25z m260 -95
c-3 -10 -5 -2 -5 17 0 19 2 27 5 18 2 -10 2 -26 0 -35z m-260 15 c-3 -8 -6 -5
-6 6 -1 11 2 17 5 13 3 -3 4 -12 1 -19z m-540 -140 c-3 -7 -5 -2 -5 12 0 14 2
19 5 13 2 -7 2 -19 0 -25z m754 -31 c-10 -9 -11 -8 -5 6 3 10 9 15 12 12 3 -3
0 -11 -7 -18z m-424 -23 c-3 -3 -12 -4 -19 -1 -8 3 -5 6 6 6 11 1 17 -2 13 -5z
m383 -37 c0 -2 -12 -14 -27 -28 l-28 -24 24 28 c23 25 31 32 31 24z m-303
-163 c-3 -3 -12 -4 -19 -1 -8 3 -5 6 6 6 11 1 17 -2 13 -5z m-670 -86 c-2 -18
-4 -6 -4 27 0 33 2 48 4 33 2 -15 2 -42 0 -60z m391 75 c-21 -2 -57 -2 -80 0
-24 2 -7 4 37 4 44 0 63 -2 43 -4z m125 0 c-7 -2 -21 -2 -30 0 -10 3 -4 5 12
5 17 0 24 -2 18 -5z m84 1 c-3 -3 -12 -4 -19 -1 -8 3 -5 6 6 6 11 1 17 -2 13
-5z m-340 -166 c-2 -24 -4 -5 -4 42 0 47 2 66 4 43 2 -24 2 -62 0 -85z m0
-160 c-2 -18 -4 -6 -4 27 0 33 2 48 4 33 2 -15 2 -42 0 -60z"/>
<path d="M6540 5745 c0 -132 13 -119 -117 -115 l-73 2 0 -111 0 -111 94 0 94
0 4 -267 c3 -233 6 -274 22 -313 26 -61 64 -112 79 -104 7 4 9 4 5 -1 -9 -9 9
-35 24 -35 6 0 4 8 -3 18 -13 15 -12 16 3 4 10 -8 16 -18 15 -24 -4 -18 71
-50 143 -61 105 -16 300 21 300 57 0 6 -13 52 -28 101 -26 83 -30 90 -53 87
-134 -18 -174 -11 -206 37 -16 23 -18 55 -21 264 l-3 237 120 0 121 0 0 110 0
110 -122 0 -123 0 3 115 3 115 -140 0 -141 0 0 -115z m17 -57 c-2 -29 -3 -6
-3 52 0 58 1 81 3 53 2 -29 2 -77 0 -105z m-40 -84 c-3 -3 -12 -4 -19 -1 -8 3
-5 6 6 6 11 1 17 -2 13 -5z m530 -126 c-2 -24 -4 -5 -4 42 0 47 2 66 4 43 2
-24 2 -62 0 -85z m-490 -260 c-2 -13 -4 -3 -4 22 0 25 2 35 4 23 2 -13 2 -33
0 -45z m0 -205 c-2 -21 -4 -4 -4 37 0 41 2 58 4 38 2 -21 2 -55 0 -75z m291
-139 c-4 -3 -12 5 -18 18 -12 22 -12 22 6 6 10 -10 15 -20 12 -24z m219 -26
c-3 -8 -6 -5 -6 6 -1 11 2 17 5 13 3 -3 4 -12 1 -19z m-54 -5 c-7 -2 -19 -2
-25 0 -7 3 -2 5 12 5 14 0 19 -2 13 -5z m64 -35 c-3 -8 -6 -5 -6 6 -1 11 2 17
5 13 3 -3 4 -12 1 -19z m-473 -14 c3 -8 2 -12 -4 -9 -6 3 -10 10 -10 16 0 14
7 11 14 -7z m27 -41 c13 -16 12 -17 -3 -4 -10 7 -18 15 -18 17 0 8 8 3 21 -13z
m479 -28 c0 -5 -5 -3 -10 5 -5 8 -10 20 -10 25 0 6 5 3 10 -5 5 -8 10 -19 10
-25z m-360 -58 c13 -5 13 -6 -1 -6 -8 -1 -24 6 -35 15 -19 15 -19 15 1 6 11
-5 27 -12 35 -15z m335 2 c-22 -10 -47 -18 -55 -18 -8 0 5 8 30 19 59 24 76
24 25 -1z m-275 -19 c18 -12 2 -12 -25 0 -13 6 -15 9 -5 9 8 0 22 -4 30 -9z
m187 -6 c-3 -3 -12 -4 -19 -1 -8 3 -5 6 6 6 11 1 17 -2 13 -5z"/>
<path d="M5532 5626 c-68 -13 -193 -65 -235 -98 -17 -13 -16 -17 16 -88 19
-41 38 -85 43 -97 l9 -22 47 29 c76 48 142 65 248 65 80 0 103 -4 143 -24 52
-25 87 -77 87 -129 l0 -29 -167 -6 c-226 -8 -323 -34 -408 -109 -61 -53 -80
-100 -80 -198 0 -63 5 -94 18 -118 10 -18 22 -30 26 -28 4 3 19 -7 32 -22 l24
-27 -27 24 c-37 32 -36 13 0 -22 29 -28 48 -36 36 -14 -4 7 -3 9 2 4 5 -5 9
-14 9 -20 0 -17 85 -55 151 -66 83 -15 147 -14 222 4 58 14 161 69 177 94 13
21 25 0 25 -45 l0 -44 121 0 120 0 -4 353 c-2 237 -7 364 -15 389 -34 101
-128 191 -241 228 -85 28 -272 36 -379 16z m131 -3 c-7 -2 -19 -2 -25 0 -7 3
-2 5 12 5 14 0 19 -2 13 -5z m85 0 c-10 -2 -28 -2 -40 0 -13 2 -5 4 17 4 22 1
32 -1 23 -4z m-155 -10 c-7 -2 -19 -2 -25 0 -7 3 -2 5 12 5 14 0 19 -2 13 -5z
m234 1 c-3 -3 -12 -4 -19 -1 -8 3 -5 6 6 6 11 1 17 -2 13 -5z m-294 -11 c-7
-2 -19 -2 -25 0 -7 3 -2 5 12 5 14 0 19 -2 13 -5z m344 1 c-3 -3 -12 -4 -19
-1 -8 3 -5 6 6 6 11 1 17 -2 13 -5z m-420 -20 c-3 -3 -12 -4 -19 -1 -8 3 -5 6
6 6 11 1 17 -2 13 -5z m497 -3 c4 -5 -3 -7 -14 -4 -23 6 -26 13 -6 13 8 0 17
-4 20 -9z m-594 -36 c0 -2 -10 -9 -22 -15 -22 -11 -22 -10 -4 4 21 17 26 19
26 11z m742 -90 c6 -11 9 -18 6 -15 -2 3 -24 28 -48 55 -42 48 -42 48 -6 15
21 -19 42 -44 48 -55z m-782 24 c12 -23 20 -43 18 -45 -3 -2 -14 17 -26 41
-27 56 -20 60 8 4z m338 -46 c-10 -2 -26 -2 -35 0 -10 3 -2 5 17 5 19 0 27 -2
18 -5z m-113 -13 c-11 -5 -27 -9 -35 -9 -9 0 -8 4 5 9 11 5 27 9 35 9 9 0 8
-4 -5 -9z m259 -4 c19 -8 37 -20 42 -27 6 -11 5 -12 -7 -2 -8 6 -30 18 -49 26
-19 9 -31 16 -27 16 4 1 23 -5 41 -13z m-315 -10 c-10 -9 -89 -46 -89 -41 0 6
72 44 84 45 5 0 7 -2 5 -4z m650 -36 c0 -10 -3 -8 -9 5 -12 27 -12 43 0 25 5
-8 9 -22 9 -30z m-749 -14 c0 -2 -7 -7 -16 -10 -8 -3 -12 -2 -9 4 6 10 25 14
25 6z m757 -53 c-3 -10 -5 -4 -5 12 0 17 2 24 5 18 2 -7 2 -21 0 -30z m-284
-90 c-13 -2 -33 -2 -45 0 -13 2 -3 4 22 4 25 0 35 -2 23 -4z m-366 -29 c-3 -3
-12 -4 -19 -1 -8 3 -5 6 6 6 11 1 17 -2 13 -5z m-97 -29 c0 -2 -10 -9 -22 -15
-22 -11 -22 -10 -4 4 21 17 26 19 26 11z m-50 -28 c0 -2 -15 -16 -32 -33 l-33
-29 29 33 c28 30 36 37 36 29z m317 -53 c-3 -3 -12 -4 -19 -1 -8 3 -5 6 6 6
11 1 17 -2 13 -5z m120 0 c-3 -3 -12 -4 -19 -1 -8 3 -5 6 6 6 11 1 17 -2 13
-5z m110 -73 c-10 -115 -70 -171 -192 -179 -152 -10 -233 65 -181 166 28 54
83 70 255 71 l124 1 -6 -59z m-640 -153 c-3 -8 -6 -5 -6 6 -1 11 2 17 5 13 3
-3 4 -12 1 -19z m569 -13 c-11 -8 -25 -15 -30 -15 -6 1 0 7 14 15 32 19 40 18
16 0z m-546 -40 c0 -5 -5 -3 -10 5 -5 8 -10 20 -10 25 0 6 5 3 10 -5 5 -8 10
-19 10 -25z m467 9 c-3 -3 -12 -4 -19 -1 -8 3 -5 6 6 6 11 1 17 -2 13 -5z
m147 -65 c-20 -23 -88 -69 -101 -69 -5 0 12 13 37 29 25 15 51 35 59 44 7 10
16 17 19 17 3 0 -3 -10 -14 -21z m-124 -79 c-8 -5 -22 -9 -30 -9 -10 0 -8 3 5
9 27 12 43 12 25 0z m-237 -17 c-7 -2 -21 -2 -30 0 -10 3 -4 5 12 5 17 0 24
-2 18 -5z"/>
<path d="M7598 5624 c-125 -30 -243 -112 -309 -215 -49 -77 -70 -159 -71 -274
0 -161 44 -267 157 -374 158 -150 445 -182 658 -75 26 14 45 29 42 34 -3 5 0
12 6 16 8 4 9 3 5 -4 -4 -7 -2 -12 4 -12 23 0 118 111 153 178 98 187 67 428
-74 577 -40 43 -57 54 -73 50 -15 -5 -17 -4 -7 3 11 8 9 13 -10 25 -119 78
-328 109 -481 71z m150 -1 c-10 -2 -26 -2 -35 0 -10 3 -2 5 17 5 19 0 27 -2
18 -5z m55 0 c-7 -2 -19 -2 -25 0 -7 3 -2 5 12 5 14 0 19 -2 13 -5z m-140 -10
c-7 -2 -19 -2 -25 0 -7 3 -2 5 12 5 14 0 19 -2 13 -5z m220 0 c-7 -2 -19 -2
-25 0 -7 3 -2 5 12 5 14 0 19 -2 13 -5z m-298 -13 c-27 -12 -43 -12 -25 0 8 5
22 9 30 9 10 0 8 -3 -5 -9z m342 4 c-3 -3 -12 -4 -19 -1 -8 3 -5 6 6 6 11 1
17 -2 13 -5z m-477 -64 c-14 -11 -29 -20 -35 -20 -5 0 4 9 20 20 38 25 48 25
15 0z m-50 -33 c0 -2 -10 -12 -22 -23 l-23 -19 19 23 c18 21 26 27 26 19z
m731 -14 c13 -16 12 -17 -3 -4 -10 7 -18 15 -18 17 0 8 8 3 21 -13z m50 -50
c13 -16 12 -17 -3 -4 -10 7 -18 15 -18 17 0 8 8 3 21 -13z m-301 -61 c89 -46
140 -138 140 -253 0 -190 -167 -312 -352 -257 -57 17 -133 88 -155 146 -27 71
-24 183 7 247 34 70 34 73 10 45 l-22 -25 14 25 c9 14 19 25 24 25 5 0 23 10
41 23 54 39 96 51 169 52 59 0 81 -5 124 -28z m340 8 c6 -11 8 -20 6 -20 -3 0
-10 9 -16 20 -6 11 -8 20 -6 20 3 0 10 -9 16 -20z m49 -120 c0 -8 -7 1 -14 20
-18 46 -17 64 0 25 8 -16 14 -37 14 -45z m-1022 -22 c-3 -8 -6 -5 -6 6 -1 11
2 17 5 13 3 -3 4 -12 1 -19z m-10 -75 c-3 -10 -5 -2 -5 17 0 19 2 27 5 18 2
-10 2 -26 0 -35z m800 -10 c-3 -10 -5 -4 -5 12 0 17 2 24 5 18 2 -7 2 -21 0
-30z m-560 -20 c-3 -10 -5 -4 -5 12 0 17 2 24 5 18 2 -7 2 -21 0 -30z m810
-40 c-2 -16 -4 -3 -4 27 0 30 2 43 4 28 2 -16 2 -40 0 -55z m-250 -25 c-3 -7
-5 -2 -5 12 0 14 2 19 5 13 2 -7 2 -19 0 -25z m-800 -15 c-3 -10 -5 -4 -5 12
0 17 2 24 5 18 2 -7 2 -21 0 -30z m250 -15 c-3 -8 -6 -5 -6 6 -1 11 2 17 5 13
3 -3 4 -12 1 -19z m790 -25 c-3 -10 -5 -2 -5 17 0 19 2 27 5 18 2 -10 2 -26 0
-35z m-1030 -25 c-3 -8 -6 -5 -6 6 -1 11 2 17 5 13 3 -3 4 -12 1 -19z m23 -53
c0 -5 -5 -3 -10 5 -5 8 -10 20 -10 25 0 6 5 3 10 -5 5 -8 10 -19 10 -25z m950
-65 c-6 -11 -13 -20 -16 -20 -2 0 0 9 6 20 6 11 13 20 16 20 2 0 0 -9 -6 -20z
m-363 -26 c-3 -3 -12 -4 -19 -1 -8 3 -5 6 6 6 11 1 17 -2 13 -5z m-114 -11
c-7 -2 -21 -2 -30 0 -10 3 -4 5 12 5 17 0 24 -2 18 -5z m65 0 c-10 -2 -26 -2
-35 0 -10 3 -2 5 17 5 19 0 27 -2 18 -5z m392 3 c0 -2 -8 -10 -17 -17 -16 -13
-17 -12 -4 4 13 16 21 21 21 13z m-855 -26 c10 -11 16 -20 13 -20 -3 0 -13 9
-23 20 -10 11 -16 20 -13 20 3 0 13 -9 23 -20z m815 -23 c0 -2 -12 -14 -27
-28 l-28 -24 24 28 c23 25 31 32 31 24z m-748 -42 c16 -14 26 -25 21 -25 -11
1 -70 50 -59 50 4 0 21 -11 38 -25z m573 -75 c-3 -5 -12 -10 -18 -10 -7 0 -6
4 3 10 19 12 23 12 15 0z m-352 -27 c-7 -2 -19 -2 -25 0 -7 3 -2 5 12 5 14 0
19 -2 13 -5z m280 0 c-7 -2 -19 -2 -25 0 -7 3 -2 5 12 5 14 0 19 -2 13 -5z
m-230 -10 c-7 -2 -19 -2 -25 0 -7 3 -2 5 12 5 14 0 19 -2 13 -5z m164 1 c-3
-3 -12 -4 -19 -1 -8 3 -5 6 6 6 11 1 17 -2 13 -5z"/>
<path d="M8490 5316 c0 -172 5 -337 10 -367 15 -76 61 -170 108 -217 110 -110
331 -143 475 -71 49 25 89 58 82 70 -6 9 13 22 38 26 15 2 17 -6 17 -57 l0
-60 135 0 135 0 0 494 0 494 -145 1 -145 2 0 -293 c0 -289 -1 -294 -24 -345
-32 -67 -83 -103 -165 -112 -118 -14 -205 33 -230 126 -7 23 -11 154 -11 331
l0 292 -140 0 -140 0 0 -314z m267 52 c-1 -46 -3 -9 -3 82 0 91 2 128 3 83 2
-46 2 -120 0 -165z m516 235 c-7 -2 -19 -2 -25 0 -7 3 -2 5 12 5 14 0 19 -2
13 -5z m205 -120 c-2 -131 -6 -116 -10 40 -2 48 0 87 5 87 4 0 6 -57 5 -127z
m-1 -600 c-1 -87 -3 -16 -3 157 0 173 2 244 3 158 2 -87 2 -229 0 -315z m-720
200 c-2 -38 -3 -7 -3 67 0 74 1 105 3 68 2 -38 2 -98 0 -135z m434 -110 c-12
-20 -14 -14 -5 12 4 9 9 14 11 11 3 -2 0 -13 -6 -23z m-654 -95 c-3 -8 -6 -5
-6 6 -1 11 2 17 5 13 3 -3 4 -12 1 -19z m73 -120 c15 -21 17 -28 6 -19 -16 13
-41 51 -33 51 2 0 14 -15 27 -32z m627 -20 c-3 -7 -5 -2 -5 12 0 14 2 19 5 13
2 -7 2 -19 0 -25z m-537 -55 c0 -7 -39 17 -46 28 -3 6 5 3 20 -6 14 -10 26
-19 26 -22z m542 2 c2 -19 0 -35 -4 -35 -4 0 -8 16 -8 35 0 19 2 35 4 35 2 0
6 -16 8 -35z m235 -17 c-2 -13 -4 -5 -4 17 -1 22 1 32 4 23 2 -10 2 -28 0 -40z
m-367 27 c0 -2 -10 -9 -22 -15 -22 -11 -22 -10 -4 4 21 17 26 19 26 11z m-365
-25 c13 -6 15 -9 5 -9 -8 0 -22 4 -30 9 -18 12 -2 12 25 0z m108 -27 c-7 -2
-21 -2 -30 0 -10 3 -4 5 12 5 17 0 24 -2 18 -5z"/>
<path d="M9175 4740 c-3 -5 -1 -10 4 -10 6 0 11 5 11 10 0 6 -2 10 -4 10 -3 0
-8 -4 -11 -10z"/>
</g>
</svg>